<svg width="862" height="865" viewBox="0 0 862 865" fill="none" xmlns="http://www.w3.org/2000/svg">
<ellipse cx="234.985" cy="613.218" rx="493.066" ry="468.313" transform="rotate(20.7527 234.985 613.218)" fill="#8257E6"/>
<g clip-path="url(#clip0_318_1334)">
<path d="M630.87 221.668H169.724C169.531 221.664 169.347 221.584 169.211 221.445C169.076 221.307 169 221.121 169 220.927C169 220.733 169.076 220.547 169.211 220.409C169.347 220.271 169.531 220.191 169.724 220.186H630.87C631.064 220.191 631.248 220.271 631.383 220.409C631.519 220.547 631.595 220.733 631.595 220.927C631.595 221.121 631.519 221.307 631.383 221.445C631.248 221.584 631.064 221.664 630.87 221.668V221.668Z" fill="#CACACA"/>
<path d="M186.028 211.297C190.428 211.297 193.995 207.649 193.995 203.149C193.995 198.648 190.428 195 186.028 195C181.627 195 178.06 198.648 178.06 203.149C178.06 207.649 181.627 211.297 186.028 211.297Z" fill="#3F3D56"/>
<path d="M213.553 211.297C217.953 211.297 221.52 207.649 221.52 203.149C221.52 198.648 217.953 195 213.553 195C209.152 195 205.585 198.648 205.585 203.149C205.585 207.649 209.152 211.297 213.553 211.297Z" fill="#3F3D56"/>
<path d="M241.077 211.297C245.478 211.297 249.045 207.649 249.045 203.149C249.045 198.648 245.478 195 241.077 195C236.677 195 233.11 198.648 233.11 203.149C233.11 207.649 236.677 211.297 241.077 211.297Z" fill="#3F3D56"/>
<path d="M614.376 197.02H594.824C594.436 197.027 594.067 197.187 593.796 197.464C593.524 197.741 593.372 198.113 593.372 198.501C593.372 198.889 593.524 199.261 593.796 199.538C594.067 199.815 594.436 199.974 594.824 199.982H614.376C614.763 199.974 615.133 199.815 615.404 199.538C615.675 199.261 615.827 198.889 615.827 198.501C615.827 198.113 615.675 197.741 615.404 197.464C615.133 197.187 614.763 197.027 614.376 197.02V197.02Z" fill="#3F3D56"/>
<path d="M614.376 202.579H594.824C594.436 202.587 594.067 202.746 593.796 203.023C593.524 203.3 593.372 203.672 593.372 204.06C593.372 204.448 593.524 204.82 593.796 205.097C594.067 205.374 594.436 205.533 594.824 205.541H614.376C614.763 205.533 615.133 205.374 615.404 205.097C615.675 204.82 615.827 204.448 615.827 204.06C615.827 203.672 615.675 203.3 615.404 203.023C615.133 202.746 614.763 202.587 614.376 202.579V202.579Z" fill="#3F3D56"/>
<path d="M614.376 208.131H594.824C594.436 208.139 594.067 208.298 593.796 208.575C593.524 208.852 593.372 209.224 593.372 209.612C593.372 210 593.524 210.372 593.796 210.649C594.067 210.926 594.436 211.086 594.824 211.093H614.376C614.763 211.086 615.133 210.926 615.404 210.649C615.675 210.372 615.827 210 615.827 209.612C615.827 209.224 615.675 208.852 615.404 208.575C615.133 208.298 614.763 208.139 614.376 208.131V208.131Z" fill="#3F3D56"/>
<path d="M607.075 246.68H187.048C184.723 246.684 182.493 247.61 180.849 249.255C179.204 250.9 178.279 253.13 178.275 255.457V256.873C178.279 259.199 179.204 261.43 180.849 263.075C182.493 264.72 184.723 265.646 187.048 265.649H607.075C609.4 265.646 611.63 264.72 613.275 263.075C614.919 261.43 615.845 259.199 615.848 256.873V255.457C615.845 253.13 614.919 250.9 613.275 249.255C611.63 247.61 609.4 246.684 607.075 246.68V246.68Z" fill="#F0F0F0"/>
<path d="M237.738 259.667H197.756C196.862 259.666 196.004 259.309 195.372 258.676C194.74 258.043 194.385 257.184 194.385 256.289C194.385 255.394 194.74 254.536 195.372 253.903C196.004 253.27 196.862 252.913 197.756 252.912H237.738C242.092 252.851 242.136 259.728 237.738 259.667Z" fill="white"/>
<path d="M357.341 259.667H317.359C316.465 259.666 315.607 259.309 314.975 258.676C314.343 258.043 313.988 257.184 313.988 256.289C313.988 255.394 314.343 254.536 314.975 253.903C315.607 253.27 316.465 252.913 317.359 252.912H357.341C361.695 252.851 361.739 259.728 357.341 259.667Z" fill="white"/>
<path d="M476.944 259.667H436.963C436.068 259.666 435.211 259.309 434.579 258.676C433.947 258.043 433.591 257.184 433.591 256.289C433.591 255.394 433.947 254.536 434.579 253.903C435.211 253.27 436.068 252.913 436.963 252.912H476.944C481.298 252.851 481.342 259.728 476.944 259.667Z" fill="white"/>
<path d="M590.349 260.032H550.367C549.472 260.032 548.613 259.676 547.98 259.042C547.346 258.409 546.991 257.55 546.991 256.654C546.991 255.758 547.346 254.899 547.98 254.266C548.613 253.632 549.472 253.277 550.367 253.277H590.349C594.703 253.216 594.746 260.093 590.349 260.032Z" fill="#744EAA"/>
<path d="M527.969 246.68H526.51V265.649H527.969V246.68Z" fill="white"/>
<path d="M377.039 527.431H205.618C204.09 527.429 202.626 526.821 201.546 525.741C200.466 524.66 199.858 523.195 199.857 521.667V496.551C199.858 495.023 200.466 493.558 201.546 492.478C202.626 491.398 204.09 490.79 205.618 490.788H377.039C378.566 490.79 380.031 491.398 381.111 492.478C382.191 493.558 382.798 495.023 382.8 496.551V521.667C382.798 523.195 382.191 524.66 381.111 525.741C380.031 526.821 378.566 527.429 377.039 527.431V527.431Z" fill="#F0F0F0"/>
<path d="M360.383 523.543H209.505C207.977 523.542 206.513 522.934 205.433 521.853C204.353 520.773 203.745 519.308 203.743 517.78V500.442C203.745 498.914 204.353 497.449 205.433 496.369C206.513 495.288 207.977 494.68 209.505 494.679H373.153C374.681 494.68 376.145 495.288 377.225 496.369C378.305 497.449 378.912 498.914 378.914 500.442V505.005C378.909 509.92 376.955 514.632 373.481 518.107C370.007 521.583 365.296 523.538 360.383 523.543V523.543Z" fill="white"/>
<path d="M308.339 507.323H239.441C239.047 507.323 238.669 507.166 238.39 506.887C238.111 506.609 237.955 506.231 237.955 505.836C237.955 505.442 238.111 505.064 238.39 504.785C238.669 504.507 239.047 504.35 239.441 504.35H308.339C308.733 504.35 309.111 504.507 309.39 504.785C309.668 505.064 309.825 505.442 309.825 505.836C309.825 506.231 309.668 506.609 309.39 506.887C309.111 507.166 308.733 507.323 308.339 507.323V507.323Z" fill="#E6E6E6"/>
<path d="M343.216 513.402H239.441C239.245 513.402 239.052 513.364 238.871 513.29C238.69 513.215 238.526 513.106 238.388 512.968C238.249 512.83 238.14 512.666 238.065 512.485C237.99 512.305 237.951 512.111 237.951 511.916C237.951 511.72 237.99 511.527 238.065 511.346C238.14 511.166 238.249 511.002 238.388 510.863C238.526 510.725 238.69 510.616 238.871 510.542C239.052 510.467 239.245 510.429 239.441 510.429H343.216C343.61 510.43 343.987 510.587 344.265 510.866C344.543 511.144 344.699 511.522 344.699 511.916C344.699 512.309 344.543 512.687 344.265 512.966C343.987 513.244 343.61 513.401 343.216 513.402V513.402Z" fill="#E6E6E6"/>
<path d="M387.989 462.052H192.533C190.973 462.05 189.478 461.429 188.375 460.326C187.272 459.223 186.652 457.727 186.65 456.167V306.7C186.652 305.14 187.272 303.644 188.375 302.541C189.478 301.437 190.973 300.817 192.533 300.815H387.989C389.549 300.817 391.044 301.437 392.147 302.541C393.25 303.644 393.87 305.14 393.872 306.7V456.167C393.87 457.727 393.25 459.223 392.147 460.326C391.044 461.429 389.549 462.05 387.989 462.052V462.052Z" fill="white"/>
<path d="M387.989 462.781H192.533C190.78 462.779 189.099 462.082 187.86 460.842C186.62 459.602 185.923 457.92 185.921 456.167V306.7C185.923 304.946 186.62 303.265 187.86 302.025C189.099 300.785 190.78 300.087 192.533 300.085H387.989C389.742 300.087 391.423 300.785 392.662 302.025C393.902 303.265 394.599 304.946 394.601 306.7V456.167C394.599 457.92 393.902 459.602 392.662 460.842C391.423 462.082 389.742 462.779 387.989 462.781ZM192.533 301.545C191.167 301.546 189.857 302.09 188.891 303.056C187.924 304.023 187.381 305.333 187.379 306.7V456.167C187.381 457.533 187.924 458.844 188.89 459.81C189.857 460.777 191.166 461.321 192.533 461.322H387.989C389.355 461.321 390.665 460.777 391.631 459.81C392.598 458.844 393.141 457.533 393.143 456.167V306.7C393.141 305.333 392.597 304.023 391.631 303.056C390.665 302.09 389.355 301.546 387.989 301.545L192.533 301.545Z" fill="#F0F0F0"/>
<path d="M187.101 433.598V456.167C187.104 457.607 187.676 458.988 188.695 460.006C189.713 461.025 191.093 461.598 192.533 461.6H387.989C389.429 461.598 390.809 461.025 391.827 460.006C392.845 458.988 393.418 457.607 393.42 456.167V433.598H187.101Z" fill="#F0F0F0"/>
<path d="M188.943 301.767L188.157 302.996L393.027 434.212L393.814 432.984L188.943 301.767Z" fill="#F0F0F0"/>
<path d="M393.606 301.767L188.735 432.984L189.522 434.212L394.392 302.996L393.606 301.767Z" fill="#F0F0F0"/>
<path d="M566.728 623.837L557.692 623.836L553.392 588.97L566.729 588.971L566.728 623.837Z" fill="#A0616A"/>
<path d="M566.487 620.883L556.845 616.965L556.561 616.848L551.237 620.883C548.316 620.882 545.507 622.01 543.396 624.032C541.286 626.053 540.038 628.812 539.911 631.732C539.897 631.892 539.897 632.06 539.897 632.228V632.6H569.032V620.883H566.487Z" fill="#2F2E41"/>
<path d="M545.566 615.425L537.043 618.425L521.42 586.962L534 582.535L545.566 615.425Z" fill="#A0616A"/>
<path d="M544.359 612.718L533.965 612.223L533.658 612.208L529.975 617.781C527.218 618.751 524.943 620.748 523.623 623.355C522.303 625.963 522.041 628.979 522.89 631.776C522.93 631.932 522.985 632.09 523.041 632.249L523.164 632.6L550.648 622.926L546.76 611.873L544.359 612.718Z" fill="#2F2E41"/>
<path d="M569.92 473.501C578.187 473.181 567.947 539.083 567.947 539.083C567.947 539.083 570.942 596.942 570.307 599.979C569.672 603.015 570.227 611.204 570.227 611.204C568.608 608.255 551.899 610.481 551.899 610.481L549.625 551.841L538.02 504.856L521.93 536.351L537.352 584.693C537.352 584.693 543.597 590.474 542.933 592.759C542.269 595.043 525.91 600.195 522.904 600.312C519.898 600.428 521.256 596.611 521.11 592.852C520.964 589.093 506.819 554.254 501.844 542.4C496.868 530.546 500.736 513.832 503.276 501.686C505.816 489.541 519.177 466.748 519.177 466.748C535.762 448.034 561.654 473.822 569.92 473.501Z" fill="#2F2E41"/>
<path d="M469.178 420.244C469.631 421.109 470.268 421.865 471.044 422.457C471.821 423.05 472.717 423.465 473.671 423.673C474.625 423.882 475.614 423.878 476.566 423.663C477.519 423.448 478.412 423.027 479.185 422.429L499.064 435.404L499.003 423.065L480.135 412.635C479.045 411.404 477.541 410.616 475.909 410.42C474.277 410.224 472.629 410.633 471.279 411.571C469.928 412.509 468.968 413.91 468.581 415.508C468.194 417.106 468.407 418.791 469.178 420.244V420.244Z" fill="#A0616A"/>
<path d="M565.627 484.066C545.127 484.067 533.83 479.962 527.831 476.296C520.495 471.814 519.24 467.087 519.19 466.888L519.175 466.831L519.889 457.842L520.202 457.142C521.641 453.92 521.831 450.278 520.737 446.923L520.715 446.854L520.72 446.782L525.514 384.59L542.477 379.031L547.412 374.071L569.383 373.752L572.445 379.961L589.766 386.484L581.256 437.158L577.177 444.192L578.818 451.855L578.807 451.924L573.455 483.879L573.161 483.892C570.521 484.011 568.01 484.069 565.627 484.066Z" fill="#3F3D56"/>
<path d="M512.592 445.266L504.549 440.496L504.045 439.768C503.022 438.294 501.667 437.081 500.089 436.226C498.512 435.371 496.756 434.898 494.963 434.845L494.869 434.842L483.792 428.327L488.384 414.871L505.748 420.003L517.854 389.912C518.519 388.259 519.629 386.823 521.061 385.764C522.493 384.705 524.19 384.064 525.964 383.912C527.739 383.761 529.52 384.104 531.111 384.905C532.702 385.706 534.039 386.932 534.975 388.448C535.933 390.032 536.43 391.853 536.409 393.705V413.394L536.337 413.492L512.592 445.266Z" fill="#3F3D56"/>
<path d="M566.36 472.493C566.532 471.531 566.913 470.619 567.475 469.821C568.038 469.022 568.768 468.357 569.616 467.871C570.463 467.386 571.406 467.092 572.379 467.011C573.352 466.93 574.332 467.063 575.248 467.401L590.312 449.051L593.96 460.838L579.095 476.457C578.425 477.959 577.228 479.163 575.73 479.84C574.232 480.518 572.538 480.622 570.968 480.134C569.398 479.645 568.062 478.597 567.213 477.189C566.363 475.781 566.06 474.11 566.36 472.493V472.493Z" fill="#A0616A"/>
<path d="M588.883 470.174L578.88 460.166L585.248 444.645L594.476 432.039C584.643 427.25 577.261 415.904 571.913 406.512L571.852 406.407L573.184 395.971C573.496 393.53 574.473 391.222 576.009 389.301C577.345 387.629 579.061 386.302 581.015 385.43C582.968 384.558 585.102 384.167 587.237 384.289C589.372 384.411 591.448 385.043 593.289 386.132C595.13 387.221 596.685 388.735 597.821 390.547L615.756 430.432L615.554 430.734L601.128 455.334L597.191 457.888L588.883 470.174Z" fill="#3F3D56"/>
<path d="M574.173 352.831C573.513 357.641 570.972 361.991 567.108 364.927C563.244 367.863 558.373 369.145 553.565 368.49C548.757 367.836 544.406 365.298 541.467 361.436C538.527 357.574 537.241 352.702 537.89 347.891L537.926 347.631C538.684 342.885 541.277 338.627 545.146 335.777C549.014 332.926 553.848 331.71 558.604 332.393C563.36 333.075 567.657 335.6 570.568 339.424C573.48 343.247 574.773 348.062 574.167 352.831L574.173 352.831Z" fill="#A0616A"/>
<path d="M569.513 362.265C570.453 360.355 571.419 358.304 571.155 356.19C570.891 354.077 568.819 352.057 566.785 352.685C565.569 353.061 564.649 354.263 563.378 354.324C561.628 354.409 560.625 352.406 560.081 350.74L557.863 343.958C555.733 345.618 553.264 346.788 550.63 347.383C547.996 347.978 545.264 347.985 542.627 347.402C540.568 346.931 538.488 346.013 537.28 344.279C536.072 342.546 536.08 339.857 537.736 338.546C538.549 337.903 539.63 337.659 540.406 336.973C540.888 336.548 541.22 335.978 541.353 335.35C541.486 334.721 541.413 334.066 541.145 333.482C540.877 332.897 540.428 332.415 539.865 332.106C539.302 331.797 538.654 331.677 538.017 331.765L543.601 331.067L541.938 328.056C542.57 328.487 543.285 328.781 544.038 328.919C544.79 329.057 545.563 329.036 546.307 328.858C547.81 328.588 549.225 327.969 550.694 327.556C554.257 326.646 558.019 326.924 561.409 328.348C564.799 329.772 567.632 332.265 569.477 335.446C570.851 334.987 572.332 334.957 573.724 335.359C575.116 335.761 576.353 336.577 577.271 337.698C578.765 339.596 579.172 342.129 579.23 344.544C579.339 349.307 578.3 354.027 576.203 358.304C575.602 359.663 574.737 360.889 573.66 361.913C573.118 362.42 572.471 362.803 571.766 363.033C571.06 363.264 570.312 363.338 569.575 363.249" fill="#2F2E41"/>
<path d="M272.831 343.42C273.13 347.686 274.386 351.83 276.506 355.543C280.975 363.394 288.638 369.078 296.891 372.457C307.203 376.678 318.697 376.808 329.64 375.867C339.804 374.992 349.864 372.966 360.066 372.548C367.955 372.296 375.852 372.484 383.72 373.113C398.985 374.197 414.187 376.208 429.291 378.646C433.382 379.298 437.463 379.999 441.537 380.748C441.922 380.782 442.303 380.853 442.674 380.96C442.748 380.99 442.867 380.966 442.935 381.009C443.058 381.086 442.437 380.812 442.813 381.123C443.337 381.673 443.805 382.275 444.208 382.919L449.786 390.1C451.386 392.16 452.87 394.662 454.938 396.285C456.396 397.412 458.154 398.081 459.992 398.209C461.83 398.337 463.664 397.918 465.264 397.005C466.935 395.948 468.268 394.434 469.104 392.641C470.387 390.287 471.918 388.077 473.67 386.048C480.307 378.303 489.53 373.539 497.244 367.022C500.981 363.995 504.17 360.348 506.673 356.241C508.807 352.524 510.135 348.398 510.568 344.133C511.492 335.472 508.835 326.64 504.367 319.272C499.507 311.356 492.525 304.963 484.214 300.818C474.877 296.06 464.546 293.742 454.19 292.587C443.195 291.36 432.072 291.364 421.024 291.488C408.624 291.626 396.247 292.172 383.892 293.125C371.52 294.083 359.198 295.444 346.923 297.21C335.146 298.904 323.224 300.669 311.696 303.667C301.512 306.314 291.356 310.453 283.751 317.952C276.989 324.62 272.286 333.744 272.831 343.42Z" fill="#744EAA"/>
<path d="M329.76 346.175C329.256 346.153 328.763 346.026 328.311 345.803C327.859 345.581 327.457 345.267 327.132 344.881C326.808 344.496 326.566 344.047 326.423 343.564C326.28 343.08 326.238 342.572 326.301 342.072L326.563 340.011C326.613 339.616 326.566 339.214 326.426 338.841C326.287 338.468 326.059 338.134 325.762 337.868L324.215 336.485C323.708 336.032 323.338 335.447 323.147 334.794C322.955 334.142 322.95 333.449 323.132 332.794C323.314 332.139 323.675 331.548 324.175 331.088C324.675 330.628 325.294 330.317 325.961 330.19L328.001 329.802C328.392 329.728 328.759 329.56 329.071 329.312C329.383 329.064 329.63 328.745 329.79 328.38L330.628 326.478C330.902 325.856 331.344 325.323 331.905 324.94C332.466 324.557 333.123 324.338 333.802 324.308C334.481 324.279 335.154 324.44 335.746 324.773C336.338 325.107 336.825 325.599 337.152 326.195L338.15 328.016C338.342 328.366 338.615 328.664 338.948 328.884C339.28 329.104 339.661 329.24 340.057 329.28L342.122 329.489C342.798 329.557 343.442 329.814 343.98 330.229C344.518 330.644 344.929 331.201 345.167 331.838C345.405 332.475 345.46 333.166 345.325 333.832C345.191 334.498 344.873 335.114 344.408 335.609L342.986 337.122C342.712 337.412 342.514 337.764 342.408 338.147C342.301 338.531 342.289 338.935 342.374 339.324L342.813 341.356C342.956 342.02 342.911 342.711 342.683 343.351C342.454 343.991 342.052 344.554 341.52 344.977C340.988 345.4 340.349 345.666 339.674 345.744C338.999 345.822 338.316 345.71 337.702 345.421L335.823 344.535C335.463 344.365 335.067 344.284 334.669 344.302C334.271 344.319 333.883 344.433 333.539 344.634L331.745 345.679C331.144 346.031 330.455 346.203 329.76 346.175V346.175Z" fill="white"/>
<path d="M359.001 345.326C358.074 345.283 357.198 344.892 356.548 344.23C356.155 343.814 355.862 343.314 355.691 342.767C355.52 342.221 355.475 341.643 355.561 341.077L355.801 339.186C355.852 338.783 355.804 338.374 355.662 337.994C355.52 337.613 355.288 337.273 354.985 337.003L353.55 335.72C353.127 335.358 352.789 334.907 352.562 334.398C352.335 333.89 352.224 333.337 352.238 332.781C352.269 331.956 352.58 331.167 353.118 330.541C353.657 329.916 354.392 329.493 355.202 329.34L357.219 328.957C357.617 328.882 357.992 328.71 358.309 328.457C358.627 328.204 358.878 327.878 359.042 327.507L359.793 325.8C360.062 325.152 360.504 324.591 361.071 324.178C361.638 323.765 362.308 323.517 363.007 323.46C363.692 323.422 364.374 323.578 364.973 323.912C365.573 324.246 366.065 324.743 366.393 325.345L367.38 327.145C367.575 327.502 367.854 327.805 368.193 328.029C368.531 328.254 368.919 328.392 369.324 328.433L371.238 328.627C371.793 328.67 372.331 328.837 372.814 329.115C373.297 329.393 373.711 329.776 374.027 330.234C374.486 330.92 374.698 331.741 374.629 332.563C374.56 333.385 374.215 334.159 373.649 334.759L372.243 336.255C371.965 336.55 371.763 336.909 371.655 337.299C371.546 337.69 371.534 338.101 371.62 338.498L372.025 340.374C372.155 340.915 372.163 341.478 372.049 342.023C371.935 342.568 371.701 343.081 371.365 343.524C370.857 344.176 370.141 344.635 369.338 344.825C368.534 345.015 367.689 344.926 366.943 344.571L365.084 343.695C364.717 343.522 364.314 343.441 363.909 343.459C363.504 343.476 363.11 343.592 362.759 343.796L360.986 344.829C360.385 345.181 359.696 345.353 359.001 345.326V345.326Z" fill="white"/>
<path d="M388.318 345.202C387.814 345.179 387.321 345.053 386.869 344.83C386.416 344.607 386.015 344.293 385.69 343.908C385.365 343.522 385.124 343.074 384.981 342.59C384.838 342.107 384.796 341.599 384.859 341.099L385.12 339.038C385.17 338.642 385.124 338.241 384.984 337.868C384.845 337.494 384.617 337.16 384.32 336.895L382.772 335.512C382.266 335.059 381.896 334.473 381.704 333.821C381.513 333.169 381.508 332.476 381.69 331.821C381.871 331.166 382.233 330.575 382.733 330.115C383.233 329.654 383.852 329.343 384.519 329.216L386.559 328.829C386.95 328.755 387.317 328.586 387.629 328.339C387.941 328.091 388.187 327.771 388.348 327.407L389.185 325.504C389.46 324.883 389.902 324.35 390.463 323.966C391.024 323.583 391.681 323.364 392.36 323.335C393.039 323.305 393.712 323.466 394.304 323.8C394.896 324.133 395.383 324.626 395.71 325.221L396.708 327.043C396.9 327.392 397.173 327.69 397.505 327.91C397.838 328.13 398.218 328.266 398.615 328.307L400.68 328.515C401.356 328.584 402 328.84 402.538 329.255C403.076 329.67 403.487 330.228 403.725 330.865C403.962 331.501 404.017 332.192 403.883 332.858C403.749 333.525 403.431 334.14 402.966 334.635L401.543 336.148C401.27 336.438 401.072 336.79 400.965 337.174C400.859 337.558 400.847 337.962 400.932 338.351L401.371 340.382C401.514 341.046 401.469 341.738 401.241 342.377C401.012 343.017 400.609 343.581 400.078 344.004C399.546 344.426 398.907 344.692 398.232 344.771C397.557 344.849 396.874 344.737 396.259 344.447L394.381 343.562C394.021 343.391 393.625 343.311 393.227 343.328C392.829 343.345 392.441 343.459 392.097 343.66L390.302 344.705C389.702 345.057 389.013 345.229 388.318 345.202V345.202Z" fill="white"/>
<path opacity="0.2" d="M416.833 344.428C416.33 344.405 415.836 344.279 415.384 344.056C414.932 343.833 414.531 343.519 414.206 343.134C413.881 342.748 413.64 342.3 413.497 341.816C413.353 341.333 413.312 340.825 413.375 340.325L413.636 338.264C413.686 337.868 413.639 337.467 413.5 337.094C413.361 336.72 413.133 336.387 412.836 336.121L411.288 334.738C410.782 334.285 410.412 333.699 410.22 333.047C410.029 332.395 410.024 331.702 410.205 331.047C410.387 330.392 410.749 329.801 411.249 329.341C411.749 328.88 412.367 328.569 413.035 328.443L415.075 328.055C415.466 327.981 415.833 327.812 416.145 327.565C416.456 327.317 416.703 326.997 416.864 326.633L417.701 324.731C417.975 324.109 418.418 323.576 418.979 323.193C419.54 322.809 420.197 322.59 420.876 322.561C421.554 322.531 422.228 322.693 422.82 323.026C423.412 323.359 423.899 323.852 424.226 324.448L425.224 326.269C425.415 326.618 425.689 326.916 426.021 327.136C426.353 327.356 426.734 327.493 427.131 327.533L429.196 327.741C429.872 327.81 430.515 328.066 431.053 328.481C431.591 328.896 432.003 329.454 432.24 330.091C432.478 330.727 432.533 331.418 432.399 332.084C432.265 332.751 431.947 333.366 431.481 333.861L430.059 335.374C429.786 335.664 429.588 336.016 429.481 336.4C429.375 336.784 429.363 337.188 429.448 337.577L429.886 339.608C430.03 340.272 429.985 340.964 429.757 341.604C429.528 342.244 429.125 342.807 428.594 343.23C428.062 343.653 427.422 343.918 426.748 343.997C426.073 344.075 425.39 343.963 424.775 343.673L422.897 342.788C422.537 342.617 422.141 342.537 421.743 342.554C421.345 342.571 420.957 342.685 420.613 342.886L418.818 343.931C418.218 344.283 417.529 344.455 416.833 344.428V344.428Z" fill="black"/>
<path opacity="0.2" d="M445.349 343.654C444.846 343.631 444.352 343.505 443.9 343.282C443.448 343.059 443.047 342.745 442.722 342.36C442.397 341.974 442.155 341.526 442.012 341.042C441.869 340.559 441.828 340.051 441.89 339.551L442.152 337.49C442.202 337.094 442.155 336.693 442.016 336.32C441.876 335.946 441.648 335.613 441.351 335.347L439.804 333.964C439.297 333.511 438.927 332.925 438.736 332.273C438.545 331.621 438.539 330.928 438.721 330.273C438.903 329.618 439.264 329.027 439.764 328.567C440.264 328.106 440.883 327.795 441.551 327.669L443.591 327.281C443.982 327.207 444.349 327.039 444.66 326.791C444.972 326.543 445.219 326.223 445.38 325.859L446.217 323.957C446.491 323.335 446.934 322.802 447.495 322.419C448.056 322.035 448.713 321.816 449.391 321.787C450.07 321.758 450.744 321.919 451.336 322.252C451.928 322.585 452.415 323.078 452.742 323.674L453.74 325.495C453.931 325.844 454.205 326.142 454.537 326.362C454.869 326.583 455.25 326.719 455.646 326.759L457.712 326.968C458.388 327.036 459.031 327.292 459.569 327.707C460.107 328.123 460.518 328.68 460.756 329.317C460.994 329.954 461.049 330.644 460.915 331.311C460.781 331.977 460.463 332.592 459.997 333.088L458.575 334.6C458.302 334.89 458.103 335.242 457.997 335.626C457.89 336.01 457.879 336.414 457.963 336.803L458.402 338.834C458.546 339.498 458.501 340.19 458.272 340.83C458.044 341.47 457.641 342.033 457.109 342.456C456.577 342.879 455.938 343.144 455.263 343.223C454.589 343.301 453.905 343.189 453.291 342.899L451.413 342.014C451.053 341.843 450.656 341.763 450.258 341.78C449.86 341.797 449.473 341.911 449.129 342.112L447.334 343.158C446.733 343.509 446.044 343.681 445.349 343.654Z" fill="black"/>
<path d="M627.023 587.053L627.858 568.288C636.554 563.638 646.253 561.182 656.114 561.133C642.543 572.232 644.239 593.629 635.038 608.555C632.133 613.188 628.222 617.108 623.597 620.024C618.971 622.94 613.749 624.778 608.317 625.4L596.961 632.356C595.402 623.666 595.746 614.74 597.968 606.195C600.189 597.65 604.237 589.688 609.83 582.858C613.006 579.058 616.648 575.673 620.67 572.783C623.39 579.957 627.023 587.053 627.023 587.053Z" fill="#F2F2F2"/>
<path d="M692.132 634H387.74C387.51 634 387.289 633.909 387.126 633.746C386.963 633.583 386.872 633.362 386.872 633.131C386.872 632.901 386.963 632.68 387.126 632.517C387.289 632.354 387.51 632.263 387.74 632.263H692.132C692.362 632.263 692.583 632.354 692.746 632.517C692.909 632.68 693 632.901 693 633.131C693 633.362 692.909 633.583 692.746 633.746C692.583 633.909 692.362 634 692.132 634V634Z" fill="#CACACA"/>
</g>
<defs>
<clipPath id="clip0_318_1334">
<rect width="524" height="439" fill="white" transform="translate(169 195)"/>
</clipPath>
</defs>
</svg>
