<svg width="1255" height="1226" viewBox="0 0 1255 1226" fill="none" xmlns="http://www.w3.org/2000/svg">
<ellipse cx="627.015" cy="612.639" rx="493.066" ry="468.313" transform="rotate(20.7527 627.015 612.639)" fill="#8257E6"/>
<g clip-path="url(#clip0_318_1334)">
<path d="M1022.9 221.088H561.754C561.561 221.084 561.376 221.004 561.241 220.866C561.106 220.727 561.03 220.541 561.03 220.348C561.03 220.154 561.106 219.968 561.241 219.83C561.376 219.691 561.561 219.611 561.754 219.607H1022.9C1023.09 219.611 1023.28 219.691 1023.41 219.83C1023.55 219.968 1023.62 220.154 1023.62 220.348C1023.62 220.541 1023.55 220.727 1023.41 220.866C1023.28 221.004 1023.09 221.084 1022.9 221.088Z" fill="#CACACA"/>
<path d="M578.057 210.718C582.458 210.718 586.025 207.069 586.025 202.569C586.025 198.069 582.458 194.421 578.057 194.421C573.657 194.421 570.09 198.069 570.09 202.569C570.09 207.069 573.657 210.718 578.057 210.718Z" fill="#3F3D56"/>
<path d="M605.582 210.718C609.983 210.718 613.55 207.069 613.55 202.569C613.55 198.069 609.983 194.421 605.582 194.421C601.182 194.421 597.615 198.069 597.615 202.569C597.615 207.069 601.182 210.718 605.582 210.718Z" fill="#3F3D56"/>
<path d="M633.107 210.718C637.508 210.718 641.075 207.069 641.075 202.569C641.075 198.069 637.508 194.421 633.107 194.421C628.707 194.421 625.139 198.069 625.139 202.569C625.139 207.069 628.707 210.718 633.107 210.718Z" fill="#3F3D56"/>
<path d="M1006.41 196.44H986.853C986.466 196.448 986.097 196.607 985.826 196.884C985.554 197.161 985.402 197.534 985.402 197.921C985.402 198.309 985.554 198.681 985.826 198.958C986.097 199.235 986.466 199.395 986.853 199.402H1006.41C1006.79 199.395 1007.16 199.235 1007.43 198.958C1007.71 198.681 1007.86 198.309 1007.86 197.921C1007.86 197.534 1007.71 197.161 1007.43 196.884C1007.16 196.607 1006.79 196.448 1006.41 196.44Z" fill="#3F3D56"/>
<path d="M1006.41 202H986.853C986.466 202.007 986.097 202.167 985.826 202.444C985.554 202.721 985.402 203.093 985.402 203.481C985.402 203.869 985.554 204.241 985.826 204.518C986.097 204.795 986.466 204.954 986.853 204.962H1006.41C1006.79 204.954 1007.16 204.795 1007.43 204.518C1007.71 204.241 1007.86 203.869 1007.86 203.481C1007.86 203.093 1007.71 202.721 1007.43 202.444C1007.16 202.167 1006.79 202.007 1006.41 202Z" fill="#3F3D56"/>
<path d="M1006.41 207.552H986.853C986.466 207.559 986.097 207.719 985.826 207.996C985.554 208.273 985.402 208.645 985.402 209.033C985.402 209.421 985.554 209.793 985.826 210.07C986.097 210.347 986.466 210.506 986.853 210.514H1006.41C1006.79 210.506 1007.16 210.347 1007.43 210.07C1007.71 209.793 1007.86 209.421 1007.86 209.033C1007.86 208.645 1007.71 208.273 1007.43 207.996C1007.16 207.719 1006.79 207.559 1006.41 207.552Z" fill="#3F3D56"/>
<path d="M999.104 246.101H579.078C576.752 246.104 574.523 247.03 572.878 248.675C571.234 250.321 570.308 252.551 570.305 254.878V256.293C570.308 258.62 571.234 260.85 572.878 262.495C574.523 264.141 576.752 265.066 579.078 265.07H999.104C1001.43 265.066 1003.66 264.141 1005.3 262.495C1006.95 260.85 1007.87 258.62 1007.88 256.293V254.878C1007.87 252.551 1006.95 250.321 1005.3 248.675C1003.66 247.03 1001.43 246.104 999.104 246.101Z" fill="#F0F0F0"/>
<path d="M629.768 259.088H589.786C588.891 259.086 588.034 258.73 587.402 258.097C586.77 257.463 586.415 256.605 586.415 255.71C586.415 254.815 586.77 253.957 587.402 253.323C588.034 252.69 588.891 252.334 589.786 252.332H629.768C634.122 252.272 634.165 259.149 629.768 259.088Z" fill="white"/>
<path d="M749.371 259.088H709.389C708.495 259.086 707.637 258.73 707.005 258.097C706.373 257.463 706.018 256.605 706.018 255.71C706.018 254.815 706.373 253.957 707.005 253.323C707.637 252.69 708.495 252.334 709.389 252.332H749.371C753.725 252.272 753.768 259.149 749.371 259.088Z" fill="white"/>
<path d="M868.974 259.088H828.992C828.098 259.086 827.24 258.73 826.608 258.097C825.976 257.463 825.621 256.605 825.621 255.71C825.621 254.815 825.976 253.957 826.608 253.323C827.24 252.69 828.098 252.334 828.992 252.332H868.974C873.328 252.272 873.372 259.149 868.974 259.088Z" fill="white"/>
<path d="M982.378 259.452H942.397C941.501 259.452 940.643 259.097 940.009 258.463C939.376 257.83 939.021 256.971 939.021 256.075C939.021 255.179 939.376 254.32 940.009 253.687C940.643 253.053 941.501 252.697 942.397 252.697H982.378C986.732 252.637 986.776 259.514 982.378 259.452Z" fill="#744EAA"/>
<path d="M919.999 246.101H918.54V265.07H919.999V246.101Z" fill="white"/>
<path d="M769.069 526.852H597.647C596.12 526.85 594.656 526.242 593.576 525.161C592.496 524.081 591.888 522.616 591.886 521.088V495.972C591.888 494.444 592.496 492.979 593.576 491.899C594.656 490.818 596.12 490.211 597.647 490.209H769.069C770.596 490.211 772.06 490.818 773.141 491.899C774.221 492.979 774.828 494.444 774.83 495.972V521.088C774.828 522.616 774.221 524.081 773.141 525.161C772.06 526.242 770.596 526.85 769.069 526.852Z" fill="#F0F0F0"/>
<path d="M752.413 522.964H601.534C600.007 522.962 598.542 522.354 597.462 521.274C596.382 520.193 595.775 518.729 595.773 517.201V499.863C595.775 498.335 596.382 496.87 597.462 495.789C598.542 494.709 600.007 494.101 601.534 494.099H765.183C766.71 494.101 768.174 494.709 769.255 495.789C770.335 496.87 770.942 498.335 770.944 499.863V504.426C770.938 509.341 768.984 514.053 765.51 517.528C762.036 521.003 757.326 522.958 752.413 522.964Z" fill="white"/>
<path d="M700.369 506.743H631.47C631.076 506.743 630.698 506.587 630.42 506.308C630.141 506.029 629.984 505.651 629.984 505.257C629.984 504.863 630.141 504.485 630.42 504.206C630.698 503.927 631.076 503.771 631.47 503.771H700.369C700.763 503.771 701.141 503.927 701.419 504.206C701.698 504.485 701.854 504.863 701.854 505.257C701.854 505.651 701.698 506.029 701.419 506.308C701.141 506.587 700.763 506.743 700.369 506.743Z" fill="#E6E6E6"/>
<path d="M735.246 512.823H631.47C631.275 512.823 631.081 512.785 630.901 512.711C630.72 512.636 630.556 512.527 630.418 512.389C630.279 512.251 630.169 512.086 630.095 511.906C630.02 511.725 629.981 511.532 629.981 511.336C629.981 511.141 630.02 510.947 630.095 510.767C630.169 510.586 630.279 510.422 630.418 510.284C630.556 510.146 630.72 510.037 630.901 509.962C631.081 509.888 631.275 509.85 631.47 509.85H735.246C735.64 509.851 736.017 510.008 736.295 510.287C736.573 510.565 736.729 510.943 736.729 511.336C736.729 511.73 736.573 512.108 736.295 512.386C736.017 512.665 735.64 512.822 735.246 512.823Z" fill="#E6E6E6"/>
<path d="M780.019 461.472H584.562C583.003 461.471 581.507 460.85 580.405 459.747C579.302 458.643 578.681 457.148 578.68 455.587V306.121C578.681 304.56 579.302 303.064 580.405 301.961C581.508 300.858 583.003 300.237 584.562 300.236H780.019C781.579 300.237 783.074 300.858 784.177 301.961C785.279 303.064 785.9 304.56 785.902 306.121V455.587C785.9 457.148 785.279 458.643 784.177 459.747C783.074 460.85 781.579 461.471 780.019 461.472Z" fill="white"/>
<path d="M780.019 462.202H584.563C582.81 462.2 581.129 461.502 579.889 460.262C578.65 459.022 577.953 457.341 577.951 455.587V306.12C577.953 304.367 578.65 302.685 579.889 301.446C581.129 300.206 582.81 299.508 584.563 299.506H780.019C781.772 299.508 783.452 300.206 784.692 301.446C785.932 302.685 786.629 304.367 786.631 306.12V455.587C786.629 457.341 785.932 459.022 784.692 460.262C783.452 461.502 781.772 462.2 780.019 462.202ZM584.563 300.965C583.196 300.967 581.886 301.51 580.92 302.477C579.954 303.443 579.411 304.754 579.409 306.12V455.587C579.411 456.954 579.954 458.264 580.92 459.231C581.886 460.198 583.196 460.741 584.563 460.743H780.019C781.385 460.741 782.695 460.198 783.661 459.231C784.627 458.264 785.171 456.954 785.172 455.587V306.12C785.171 304.754 784.627 303.443 783.661 302.477C782.695 301.51 781.385 300.967 780.019 300.965L584.563 300.965Z" fill="#F0F0F0"/>
<path d="M579.131 433.019V455.587C579.133 457.028 579.706 458.408 580.724 459.427C581.742 460.445 583.122 461.019 584.562 461.021H780.019C781.459 461.019 782.839 460.445 783.857 459.427C784.875 458.408 785.448 457.028 785.45 455.587V433.019H579.131Z" fill="#F0F0F0"/>
<path d="M580.973 301.188L580.187 302.417L785.057 433.633L785.843 432.404L580.973 301.188Z" fill="#F0F0F0"/>
<path d="M785.635 301.188L580.765 432.404L581.551 433.633L786.422 302.416L785.635 301.188Z" fill="#F0F0F0"/>
<path d="M958.757 623.258L949.721 623.257L945.422 588.391L958.759 588.392L958.757 623.258Z" fill="#A0616A"/>
<path d="M958.516 620.303L948.875 616.386L948.591 616.269L943.267 620.303C940.345 620.303 937.536 621.431 935.426 623.452C933.316 625.474 932.067 628.232 931.941 631.152C931.926 631.313 931.926 631.48 931.926 631.648V632.02H961.061V620.303H958.516Z" fill="#2F2E41"/>
<path d="M937.596 614.845L929.072 617.845L913.449 586.383L926.03 581.955L937.596 614.845Z" fill="#A0616A"/>
<path d="M936.389 612.139L925.995 611.644L925.688 611.628L922.004 617.202C919.248 618.172 916.973 620.169 915.653 622.776C914.333 625.383 914.07 628.4 914.92 631.196C914.959 631.353 915.015 631.511 915.071 631.669L915.194 632.02L942.678 622.346L938.79 611.293L936.389 612.139Z" fill="#2F2E41"/>
<path d="M961.95 472.922C970.217 472.601 959.976 538.504 959.976 538.504C959.976 538.504 962.972 596.363 962.337 599.399C961.702 602.436 962.257 610.625 962.257 610.625C960.637 607.676 943.928 609.902 943.928 609.902L941.655 551.261L930.05 504.277L913.96 535.771L929.381 584.113C929.381 584.113 935.626 589.895 934.962 592.179C934.298 594.464 917.94 599.616 914.934 599.732C911.928 599.849 913.285 596.032 913.14 592.273C912.994 588.514 898.849 553.675 893.873 541.821C888.898 529.967 892.766 513.252 895.306 501.107C897.845 488.962 911.207 466.169 911.207 466.169C927.792 447.455 953.684 473.243 961.95 472.922Z" fill="#2F2E41"/>
<path d="M861.208 419.664C861.661 420.53 862.298 421.285 863.074 421.878C863.851 422.47 864.747 422.886 865.701 423.094C866.655 423.302 867.643 423.299 868.596 423.084C869.548 422.869 870.442 422.448 871.214 421.85L891.093 434.824L891.033 422.485L872.165 412.056C871.075 410.825 869.571 410.036 867.939 409.84C866.306 409.644 864.659 410.054 863.308 410.992C861.958 411.929 860.998 413.33 860.611 414.929C860.224 416.527 860.436 418.212 861.208 419.664Z" fill="#A0616A"/>
<path d="M957.657 483.487C937.157 483.487 925.859 479.382 919.86 475.716C912.525 471.234 911.269 466.508 911.22 466.308L911.205 466.251L911.919 457.263L912.231 456.563C913.67 453.341 913.861 449.699 912.767 446.344L912.744 446.275L912.75 446.203L917.544 384.01L934.507 378.451L939.441 373.491L961.413 373.172L964.474 379.381L981.796 385.905L973.286 436.579L969.206 443.613L970.848 451.276L970.837 451.345L965.485 483.3L965.19 483.313C962.551 483.431 960.04 483.489 957.657 483.487Z" fill="#3F3D56"/>
<path d="M904.621 444.687L896.579 439.917L896.075 439.189C895.051 437.715 893.696 436.502 892.119 435.647C890.542 434.792 888.786 434.318 886.992 434.265L886.899 434.262L875.822 427.748L880.414 414.292L897.778 419.424L909.884 389.332C910.549 387.68 911.659 386.244 913.09 385.185C914.522 384.126 916.22 383.485 917.994 383.333C919.768 383.181 921.55 383.525 923.141 384.326C924.731 385.126 926.069 386.353 927.004 387.869C927.963 389.453 928.46 391.274 928.439 393.125V412.815L928.366 412.912L904.621 444.687Z" fill="#3F3D56"/>
<path d="M958.39 471.914C958.562 470.952 958.942 470.04 959.505 469.241C960.067 468.443 960.798 467.777 961.645 467.292C962.493 466.807 963.436 466.513 964.409 466.432C965.382 466.35 966.361 466.484 967.277 466.822L982.341 448.472L985.989 460.259L971.125 475.877C970.455 477.379 969.258 478.583 967.76 479.261C966.262 479.939 964.567 480.043 962.997 479.554C961.428 479.066 960.092 478.018 959.242 476.61C958.393 475.202 958.09 473.531 958.39 471.914Z" fill="#A0616A"/>
<path d="M980.913 469.595L970.91 459.587L977.278 444.065L986.506 431.46C976.672 426.67 969.291 415.325 963.942 405.933L963.882 405.827L965.214 395.392C965.526 392.951 966.503 390.643 968.039 388.721C969.375 387.05 971.091 385.723 973.044 384.851C974.998 383.979 977.131 383.588 979.267 383.71C981.402 383.832 983.477 384.464 985.319 385.553C987.16 386.641 988.714 388.155 989.851 389.968L1007.79 429.853L1007.58 430.154L993.158 454.755L989.221 457.309L980.913 469.595Z" fill="#3F3D56"/>
<path d="M966.203 352.252C965.543 357.061 963.002 361.412 959.138 364.348C955.274 367.284 950.403 368.565 945.595 367.911C940.787 367.256 936.435 364.719 933.496 360.857C930.557 356.994 929.271 352.123 929.92 347.312L929.955 347.052C930.714 342.306 933.307 338.048 937.175 335.197C941.044 332.346 945.877 331.131 950.633 331.813C955.389 332.496 959.687 335.021 962.598 338.844C965.51 342.668 966.802 347.483 966.197 352.251L966.203 352.252Z" fill="#A0616A"/>
<path d="M961.543 361.686C962.483 359.775 963.449 357.724 963.185 355.611C962.92 353.498 960.849 351.478 958.815 352.106C957.598 352.482 956.679 353.683 955.408 353.745C953.658 353.829 952.655 351.826 952.111 350.161L949.893 343.378C947.763 345.039 945.293 346.208 942.66 346.804C940.026 347.399 937.294 347.406 934.657 346.823C932.598 346.352 930.518 345.433 929.31 343.7C928.102 341.966 928.109 339.277 929.766 337.966C930.578 337.324 931.66 337.08 932.436 336.394C932.918 335.968 933.249 335.399 933.382 334.77C933.515 334.141 933.443 333.486 933.175 332.902C932.907 332.318 932.458 331.836 931.895 331.526C931.331 331.217 930.684 331.098 930.047 331.186L935.631 330.487L933.967 327.477C934.6 327.908 935.315 328.201 936.068 328.339C936.82 328.478 937.593 328.457 938.337 328.279C939.839 328.008 941.254 327.39 942.724 326.977C946.287 326.067 950.049 326.345 953.439 327.769C956.829 329.193 959.661 331.685 961.506 334.867C962.881 334.408 964.362 334.377 965.754 334.779C967.145 335.182 968.382 335.997 969.3 337.118C970.795 339.016 971.202 341.549 971.26 343.965C971.368 348.728 970.33 353.447 968.233 357.725C967.631 359.084 966.767 360.31 965.69 361.333C965.148 361.841 964.501 362.223 963.796 362.454C963.09 362.685 962.342 362.759 961.605 362.67" fill="#2F2E41"/>
<path d="M664.861 342.841C665.16 347.107 666.416 351.25 668.536 354.964C673.005 362.815 680.668 368.499 688.921 371.877C699.232 376.099 710.727 376.229 721.67 375.287C731.834 374.413 741.894 372.387 752.095 371.969C759.985 371.717 767.882 371.905 775.75 372.534C791.015 373.617 806.217 375.629 821.321 378.067C825.411 378.719 829.493 379.42 833.566 380.169C833.951 380.203 834.332 380.274 834.704 380.38C834.778 380.411 834.897 380.387 834.964 380.429C835.087 380.507 834.467 380.233 834.843 380.544C835.367 381.094 835.834 381.695 836.238 382.339L841.816 389.521C843.415 391.58 844.9 394.082 846.967 395.706C848.425 396.832 850.184 397.502 852.022 397.63C853.859 397.758 855.694 397.339 857.294 396.426C858.965 395.369 860.298 393.855 861.134 392.062C862.417 389.708 863.947 387.497 865.7 385.468C872.336 377.723 881.56 372.96 889.274 366.443C893.011 363.416 896.2 359.769 898.702 355.661C900.837 351.944 902.165 347.819 902.598 343.554C903.522 334.893 900.865 326.06 896.397 318.692C891.536 310.777 884.554 304.383 876.244 300.239C866.907 295.48 856.576 293.163 846.22 292.007C835.225 290.781 824.102 290.785 813.053 290.909C800.654 291.047 788.276 291.592 775.922 292.545C763.55 293.503 751.227 294.865 738.953 296.63C727.176 298.324 715.254 300.09 703.726 303.087C693.541 305.735 683.386 309.874 675.78 317.373C669.019 324.041 664.315 333.165 664.861 342.841Z" fill="#744EAA"/>
<path d="M721.789 345.596C721.286 345.573 720.793 345.447 720.34 345.224C719.888 345.001 719.487 344.687 719.162 344.302C718.837 343.916 718.596 343.468 718.453 342.984C718.309 342.501 718.268 341.993 718.331 341.493L718.592 339.432C718.642 339.037 718.595 338.635 718.456 338.262C718.317 337.889 718.089 337.555 717.792 337.289L716.244 335.906C715.738 335.453 715.368 334.867 715.176 334.215C714.985 333.563 714.98 332.87 715.162 332.215C715.343 331.56 715.705 330.969 716.205 330.509C716.705 330.049 717.323 329.737 717.991 329.611L720.031 329.223C720.422 329.149 720.789 328.981 721.101 328.733C721.413 328.485 721.659 328.165 721.82 327.801L722.657 325.899C722.931 325.277 723.374 324.744 723.935 324.361C724.496 323.977 725.153 323.759 725.832 323.729C726.51 323.7 727.184 323.861 727.776 324.194C728.368 324.528 728.855 325.02 729.182 325.616L730.18 327.437C730.372 327.786 730.645 328.084 730.977 328.304C731.31 328.525 731.69 328.661 732.087 328.701L734.152 328.91C734.828 328.978 735.472 329.234 736.01 329.649C736.548 330.065 736.959 330.622 737.196 331.259C737.434 331.896 737.489 332.586 737.355 333.253C737.221 333.919 736.903 334.535 736.438 335.03L735.015 336.542C734.742 336.832 734.544 337.184 734.437 337.568C734.331 337.952 734.319 338.356 734.404 338.745L734.843 340.776C734.986 341.441 734.941 342.132 734.713 342.772C734.484 343.412 734.081 343.975 733.55 344.398C733.018 344.821 732.378 345.086 731.704 345.165C731.029 345.243 730.346 345.131 729.731 344.841L727.853 343.956C727.493 343.785 727.097 343.705 726.699 343.722C726.301 343.739 725.913 343.853 725.569 344.054L723.774 345.1C723.174 345.451 722.485 345.624 721.789 345.596Z" fill="white"/>
<path d="M751.03 344.747C750.104 344.704 749.228 344.313 748.578 343.651C748.185 343.235 747.892 342.734 747.721 342.188C747.549 341.642 747.505 341.063 747.59 340.497L747.83 338.606C747.881 338.204 747.834 337.794 747.692 337.414C747.55 337.034 747.318 336.694 747.015 336.424L745.58 335.14C745.156 334.779 744.819 334.328 744.592 333.819C744.365 333.311 744.254 332.758 744.268 332.201C744.299 331.377 744.609 330.587 745.148 329.962C745.687 329.337 746.421 328.914 747.232 328.761L749.248 328.378C749.647 328.302 750.021 328.131 750.339 327.878C750.657 327.625 750.908 327.299 751.072 326.927L751.823 325.22C752.092 324.572 752.534 324.011 753.101 323.599C753.668 323.186 754.337 322.938 755.036 322.881C755.721 322.842 756.403 322.999 757.003 323.333C757.602 323.666 758.095 324.163 758.423 324.766L759.41 326.566C759.605 326.922 759.884 327.226 760.222 327.45C760.561 327.674 760.949 327.813 761.353 327.854L763.267 328.047C763.823 328.091 764.361 328.258 764.844 328.536C765.326 328.814 765.741 329.196 766.057 329.655C766.515 330.341 766.728 331.162 766.659 331.984C766.59 332.806 766.245 333.58 765.679 334.18L764.273 335.675C763.995 335.971 763.793 336.329 763.685 336.72C763.576 337.111 763.564 337.522 763.65 337.919L764.055 339.794C764.185 340.336 764.193 340.899 764.079 341.444C763.965 341.989 763.731 342.502 763.394 342.945C762.886 343.597 762.171 344.055 761.367 344.246C760.563 344.436 759.719 344.346 758.972 343.992L757.114 343.116C756.747 342.943 756.344 342.862 755.939 342.879C755.534 342.897 755.139 343.013 754.789 343.217L753.015 344.25C752.415 344.602 751.726 344.774 751.03 344.747Z" fill="white"/>
<path d="M780.347 344.623C779.844 344.6 779.35 344.473 778.898 344.25C778.446 344.028 778.045 343.714 777.72 343.328C777.395 342.943 777.154 342.494 777.01 342.011C776.867 341.527 776.826 341.019 776.888 340.519L777.15 338.458C777.2 338.063 777.153 337.661 777.014 337.288C776.874 336.915 776.646 336.581 776.35 336.315L774.802 334.932C774.295 334.479 773.925 333.894 773.734 333.241C773.543 332.589 773.538 331.896 773.719 331.241C773.901 330.586 774.262 329.995 774.762 329.535C775.262 329.075 775.881 328.764 776.549 328.637L778.589 328.249C778.98 328.175 779.347 328.007 779.659 327.759C779.97 327.512 780.217 327.192 780.378 326.827L781.215 324.925C781.489 324.303 781.932 323.771 782.493 323.387C783.054 323.004 783.711 322.785 784.39 322.755C785.068 322.726 785.742 322.887 786.334 323.221C786.926 323.554 787.413 324.046 787.74 324.642L788.738 326.463C788.929 326.813 789.203 327.111 789.535 327.331C789.867 327.551 790.248 327.687 790.645 327.727L792.71 327.936C793.386 328.004 794.029 328.261 794.567 328.676C795.105 329.091 795.517 329.649 795.754 330.285C795.992 330.922 796.047 331.613 795.913 332.279C795.779 332.945 795.461 333.561 794.995 334.056L793.573 335.569C793.3 335.859 793.102 336.211 792.995 336.594C792.889 336.978 792.877 337.382 792.962 337.771L793.4 339.803C793.544 340.467 793.499 341.158 793.271 341.798C793.042 342.438 792.639 343.001 792.107 343.424C791.576 343.847 790.936 344.113 790.262 344.191C789.587 344.27 788.904 344.158 788.289 343.868L786.411 342.982C786.051 342.812 785.655 342.732 785.257 342.749C784.859 342.766 784.471 342.88 784.127 343.081L782.332 344.126C781.731 344.478 781.043 344.65 780.347 344.623Z" fill="white"/>
<path opacity="0.2" d="M808.863 343.849C808.36 343.826 807.866 343.699 807.414 343.476C806.962 343.254 806.561 342.94 806.236 342.554C805.911 342.169 805.669 341.72 805.526 341.237C805.383 340.753 805.342 340.246 805.404 339.745L805.666 337.684C805.716 337.289 805.669 336.887 805.53 336.514C805.39 336.141 805.162 335.807 804.865 335.542L803.318 334.158C802.811 333.705 802.441 333.12 802.25 332.468C802.059 331.815 802.053 331.123 802.235 330.468C802.417 329.813 802.778 329.222 803.278 328.761C803.778 328.301 804.397 327.99 805.065 327.863L807.105 327.476C807.496 327.401 807.863 327.233 808.175 326.985C808.486 326.738 808.733 326.418 808.894 326.053L809.731 324.151C810.005 323.529 810.448 322.997 811.009 322.613C811.57 322.23 812.227 322.011 812.905 321.982C813.584 321.952 814.258 322.113 814.85 322.447C815.442 322.78 815.929 323.272 816.256 323.868L817.254 325.689C817.445 326.039 817.719 326.337 818.051 326.557C818.383 326.777 818.764 326.913 819.16 326.953L821.226 327.162C821.902 327.23 822.545 327.487 823.083 327.902C823.621 328.317 824.032 328.875 824.27 329.511C824.508 330.148 824.563 330.839 824.429 331.505C824.295 332.172 823.977 332.787 823.511 333.282L822.089 334.795C821.816 335.085 821.617 335.437 821.511 335.821C821.404 336.204 821.393 336.608 821.477 336.997L821.916 339.029C822.06 339.693 822.015 340.384 821.786 341.024C821.558 341.664 821.155 342.227 820.623 342.65C820.091 343.073 819.452 343.339 818.777 343.417C818.103 343.496 817.419 343.384 816.805 343.094L814.927 342.209C814.567 342.038 814.171 341.958 813.772 341.975C813.374 341.992 812.987 342.106 812.643 342.307L810.848 343.352C810.247 343.704 809.558 343.876 808.863 343.849Z" fill="black"/>
<path opacity="0.2" d="M837.379 343.075C836.875 343.052 836.382 342.925 835.93 342.703C835.478 342.48 835.077 342.166 834.752 341.78C834.427 341.395 834.185 340.946 834.042 340.463C833.899 339.979 833.857 339.472 833.92 338.971L834.182 336.91C834.232 336.515 834.185 336.114 834.045 335.74C833.906 335.367 833.678 335.033 833.381 334.768L831.834 333.384C831.327 332.931 830.957 332.346 830.766 331.694C830.574 331.041 830.569 330.349 830.751 329.694C830.933 329.039 831.294 328.448 831.794 327.987C832.294 327.527 832.913 327.216 833.58 327.089L835.62 326.702C836.011 326.627 836.379 326.459 836.69 326.211C837.002 325.964 837.249 325.644 837.409 325.28L838.247 323.377C838.521 322.755 838.963 322.223 839.524 321.839C840.085 321.456 840.742 321.237 841.421 321.208C842.1 321.178 842.773 321.339 843.365 321.673C843.957 322.006 844.444 322.498 844.771 323.094L845.769 324.915C845.961 325.265 846.235 325.563 846.567 325.783C846.899 326.003 847.28 326.139 847.676 326.179L849.741 326.388C850.417 326.457 851.061 326.713 851.599 327.128C852.137 327.543 852.548 328.101 852.786 328.737C853.024 329.374 853.079 330.065 852.945 330.731C852.81 331.398 852.493 332.013 852.027 332.508L850.605 334.021C850.332 334.311 850.133 334.663 850.027 335.047C849.92 335.43 849.909 335.834 849.993 336.224L850.432 338.255C850.576 338.919 850.531 339.61 850.302 340.25C850.074 340.89 849.671 341.454 849.139 341.876C848.607 342.299 847.968 342.565 847.293 342.643C846.618 342.722 845.935 342.61 845.321 342.32L843.443 341.435C843.082 341.264 842.686 341.184 842.288 341.201C841.89 341.218 841.502 341.332 841.158 341.533L839.364 342.578C838.763 342.93 838.074 343.102 837.379 343.075Z" fill="black"/>
<path d="M1019.05 586.473L1019.89 567.709C1028.58 563.059 1038.28 560.602 1048.14 560.553C1034.57 571.653 1036.27 593.049 1027.07 607.976C1024.16 612.609 1020.25 616.529 1015.63 619.445C1011 622.361 1005.78 624.198 1000.35 624.821L988.99 631.777C987.432 623.086 987.776 614.161 989.997 605.616C992.219 597.07 996.266 589.109 1001.86 582.279C1005.04 578.478 1008.68 575.093 1012.7 572.203C1015.42 579.378 1019.05 586.473 1019.05 586.473Z" fill="#F2F2F2"/>
<path d="M1084.16 633.421H779.77C779.539 633.421 779.319 633.329 779.156 633.166C778.993 633.003 778.901 632.782 778.901 632.552C778.901 632.322 778.993 632.101 779.156 631.938C779.319 631.775 779.539 631.683 779.77 631.683H1084.16C1084.39 631.683 1084.61 631.775 1084.78 631.938C1084.94 632.101 1085.03 632.322 1085.03 632.552C1085.03 632.782 1084.94 633.003 1084.78 633.166C1084.61 633.329 1084.39 633.421 1084.16 633.421Z" fill="#CACACA"/>
</g>
<defs>
<clipPath id="clip0_318_1334">
<rect width="524" height="439" fill="white" transform="translate(561.03 194.421)"/>
</clipPath>
</defs>
</svg>
