<svg width="80" height="80" viewBox="0 0 80 80" fill="none" xmlns="http://www.w3.org/2000/svg">
<path d="M63.8779 0H15.8779C7.04137 0 -0.12207 7.16344 -0.12207 16V64C-0.12207 72.8366 7.04137 80 15.8779 80H63.8779C72.7145 80 79.8779 72.8366 79.8779 64V16C79.8779 7.16344 72.7145 0 63.8779 0Z" fill="#8257E5"/>
<path d="M40.6251 53.75H27.4532C27.2947 53.7521 27.1373 53.7224 26.9903 53.6627C26.8434 53.603 26.71 53.5144 26.5978 53.4023C26.4857 53.2902 26.3971 53.1567 26.3374 53.0098C26.2777 52.8628 26.248 52.7055 26.2501 52.5469V39.375C26.2501 35.5625 27.7646 31.9062 30.4604 29.2103C33.1563 26.5145 36.8126 25 40.6251 25C42.5129 25 44.3821 25.3718 46.1262 26.0942C47.8702 26.8166 49.4549 27.8755 50.7898 29.2103C52.1246 30.5452 53.1835 32.1299 53.9059 33.8739C54.6283 35.618 55.0001 37.4872 55.0001 39.375C55.0001 41.2628 54.6283 43.132 53.9059 44.8761C53.1835 46.6201 52.1246 48.2048 50.7898 49.5397C49.4549 50.8745 47.8702 51.9334 46.1262 52.6558C44.3821 53.3782 42.5129 53.75 40.6251 53.75Z" stroke="white" stroke-width="2.5" stroke-linecap="round" stroke-linejoin="round"/>
<path d="M42.4219 40C42.4219 40.9924 41.6174 41.7969 40.625 41.7969C39.6326 41.7969 38.8281 40.9924 38.8281 40C38.8281 39.0076 39.6326 38.2031 40.625 38.2031C41.6174 38.2031 42.4219 39.0076 42.4219 40Z" fill="white" stroke="white" stroke-width="0.15625"/>
<path d="M34.9219 40C34.9219 40.9924 34.1174 41.7969 33.125 41.7969C32.1326 41.7969 31.3281 40.9924 31.3281 40C31.3281 39.0076 32.1326 38.2031 33.125 38.2031C34.1174 38.2031 34.9219 39.0076 34.9219 40Z" fill="white" stroke="white" stroke-width="0.15625"/>
<path d="M49.9219 40C49.9219 40.9924 49.1174 41.7969 48.125 41.7969C47.1326 41.7969 46.3281 40.9924 46.3281 40C46.3281 39.0076 47.1326 38.2031 48.125 38.2031C49.1174 38.2031 49.9219 39.0076 49.9219 40Z" fill="white" stroke="white" stroke-width="0.15625"/>
</svg>
